<svg width="1600" height="520" viewBox="0 0 1600 520" fill="none" xmlns="http://www.w3.org/2000/svg">
  <rect width="1600" height="520" rx="42" fill="#FCFAF8"/>
  <rect x="56" y="64" width="1488" height="392" rx="34" fill="#FFFFFF" stroke="#E9DDD3" stroke-width="2"/>

  <rect x="116" y="124" width="408" height="272" rx="28" fill="#FFFDFC" stroke="#E9DDD3" stroke-width="2"/>
  <rect x="596" y="124" width="408" height="272" rx="28" fill="#FFFDFC" stroke="#E9DDD3" stroke-width="2"/>
  <rect x="1076" y="124" width="408" height="272" rx="28" fill="#FFFDFC" stroke="#E9DDD3" stroke-width="2"/>

  <circle cx="202" cy="194" r="40" stroke="#8C1515" stroke-width="12"/>
  <path d="M166 254H240" stroke="#8C1515" stroke-width="12" stroke-linecap="round"/>
  <path d="M202 154V234" stroke="#8C1515" stroke-width="12" stroke-linecap="round"/>
  <path d="M278 176L314 212L382 148" stroke="#8C1515" stroke-width="14" stroke-linecap="round" stroke-linejoin="round"/>
  <text x="142" y="328" fill="#231F20" font-family="Arial, sans-serif" font-size="28" font-weight="700">Assess risk before work starts</text>

  <rect x="670" y="166" width="258" height="124" rx="20" fill="#FBF5F1" stroke="#E9DDD3" stroke-width="2"/>
  <rect x="706" y="200" width="92" height="16" rx="8" fill="#8C1515"/>
  <rect x="830" y="200" width="92" height="16" rx="8" fill="#C58B2A"/>
  <rect x="706" y="240" width="216" height="12" rx="6" fill="#D2CAC4"/>
  <rect x="706" y="270" width="180" height="12" rx="6" fill="#D2CAC4"/>
  <text x="658" y="328" fill="#231F20" font-family="Arial, sans-serif" font-size="28" font-weight="700">Record controls, PPE, and response</text>

  <path d="M1154 175H1320L1360 215V300H1114V215L1154 175Z" stroke="#8C1515" stroke-width="12" stroke-linejoin="round"/>
  <path d="M1146 328H1366" stroke="#D8C5BA" stroke-width="4" stroke-linecap="round"/>
  <path d="M1392 194L1436 238" stroke="#C58B2A" stroke-width="10" stroke-linecap="round"/>
  <path d="M1436 194L1392 238" stroke="#C58B2A" stroke-width="10" stroke-linecap="round"/>
  <text x="1112" y="328" fill="#231F20" font-family="Arial, sans-serif" font-size="28" font-weight="700">Open SDS and EH&amp;S disposal guidance</text>
</svg>
