<svg width="1600" height="480" viewBox="0 0 1600 480" fill="none" xmlns="http://www.w3.org/2000/svg">
  <rect width="1600" height="480" rx="32" fill="#FBF8F4"/>
  <rect width="1600" height="480" rx="32" fill="url(#paint0_radial)"/>
  <rect width="1600" height="480" rx="32" fill="url(#paint1_linear)"/>

  <g opacity="0.22">
    <circle cx="212" cy="130" r="108" fill="#8C1515"/>
    <circle cx="1416" cy="368" r="132" fill="#B9812C"/>
    <circle cx="1184" cy="118" r="76" fill="#8C1515"/>
  </g>

  <g opacity="0.14" stroke="#8C1515" stroke-width="2">
    <path d="M84 396C166 320 278 282 420 282C562 282 674 320 756 396"/>
    <path d="M884 144C950 106 1020 86 1094 86C1168 86 1238 106 1304 144"/>
    <path d="M118 112H404"/>
    <path d="M1096 340H1454"/>
  </g>

  <g transform="translate(132 110)">
    <rect x="0" y="0" width="330" height="220" rx="28" fill="white" fill-opacity="0.92" stroke="#E6DDD4"/>
    <path d="M68 158L108 72H176L216 158" stroke="#8C1515" stroke-width="10" stroke-linecap="round" stroke-linejoin="round"/>
    <path d="M92 102H192" stroke="#8C1515" stroke-width="10" stroke-linecap="round"/>
    <path d="M140 72V40" stroke="#8C1515" stroke-width="10" stroke-linecap="round"/>
    <circle cx="238" cy="102" r="44" fill="#8C1515" fill-opacity="0.12" stroke="#8C1515" stroke-width="8"/>
    <path d="M220 102L232 114L260 86" stroke="#8C1515" stroke-width="10" stroke-linecap="round" stroke-linejoin="round"/>
    <text x="48" y="194" fill="#2E2D29" font-family="Arial, sans-serif" font-size="22" font-weight="700">Risk assessment before work starts</text>
  </g>

  <g transform="translate(564 94)">
    <rect x="0" y="0" width="452" height="252" rx="30" fill="white" fill-opacity="0.94" stroke="#E6DDD4"/>
    <rect x="54" y="48" width="344" height="160" rx="18" fill="#F8F5F2" stroke="#E6DDD4"/>
    <rect x="88" y="86" width="122" height="72" rx="12" fill="#8C1515" fill-opacity="0.08"/>
    <rect x="242" y="86" width="122" height="72" rx="12" fill="#B9812C" fill-opacity="0.1"/>
    <path d="M102 122H196" stroke="#8C1515" stroke-width="10" stroke-linecap="round"/>
    <path d="M258 122H348" stroke="#B9812C" stroke-width="10" stroke-linecap="round"/>
    <path d="M118 70H330" stroke="#2E2D29" stroke-opacity="0.16" stroke-width="8" stroke-linecap="round"/>
    <path d="M118 182H330" stroke="#2E2D29" stroke-opacity="0.16" stroke-width="8" stroke-linecap="round"/>
    <text x="54" y="228" fill="#2E2D29" font-family="Arial, sans-serif" font-size="22" font-weight="700">PPE • controls • emergency response • signatures</text>
  </g>

  <g transform="translate(1080 122)">
    <rect x="0" y="0" width="376" height="196" rx="28" fill="white" fill-opacity="0.92" stroke="#E6DDD4"/>
    <path d="M88 64H216C233.673 64 248 78.3269 248 96V152H56V96C56 78.3269 70.3269 64 88 64Z" fill="#8C1515" fill-opacity="0.09" stroke="#8C1515" stroke-width="8"/>
    <path d="M94 58L118 32H186L210 58" stroke="#2E2D29" stroke-width="8" stroke-linecap="round" stroke-linejoin="round"/>
    <path d="M276 62L308 92L276 122L244 92L276 62Z" fill="#B9812C" fill-opacity="0.14" stroke="#B9812C" stroke-width="8"/>
    <path d="M276 80V104" stroke="#B9812C" stroke-width="8" stroke-linecap="round"/>
    <path d="M264 92H288" stroke="#B9812C" stroke-width="8" stroke-linecap="round"/>
    <text x="56" y="176" fill="#2E2D29" font-family="Arial, sans-serif" font-size="22" font-weight="700">SDS access and EH&amp;S disposal guidance</text>
  </g>

  <defs>
    <radialGradient id="paint0_radial" cx="0" cy="0" r="1" gradientUnits="userSpaceOnUse" gradientTransform="translate(220 82) rotate(26.5651) scale(1188.89 596.848)">
      <stop stop-color="#8C1515" stop-opacity="0.06"/>
      <stop offset="1" stop-color="#8C1515" stop-opacity="0"/>
    </radialGradient>
    <linearGradient id="paint1_linear" x1="800" y1="0" x2="800" y2="480" gradientUnits="userSpaceOnUse">
      <stop stop-color="#FFFFFF"/>
      <stop offset="1" stop-color="#F7F1EA"/>
    </linearGradient>
  </defs>
</svg>
